<svg width="206" height="270" viewBox="0 0 206 270" fill="none" xmlns="http://www.w3.org/2000/svg">
	<g clip-path="url(#clip0_25_77)">
		<path
			d="M56.3734 84.3723C56.3734 63.6542 39.5849 46.8589 18.8754 46.8589H-18.6227V84.3723C-18.6227 105.09 -1.83426 121.886 18.8754 121.886C39.5849 121.886 56.3734 105.09 56.3734 84.3723Z"
			fill="#DEDEE3" />
		<path
			d="M56.3734 9.34549C56.3734 30.0636 73.1619 46.8589 93.8715 46.8589H131.369V9.34549C131.369 -11.3726 114.581 -28.168 93.8715 -28.168C73.1619 -28.168 56.3734 -11.3726 56.3734 9.34549Z"
			fill="#DEDEE3" />
		<path
			d="M-18.6227 9.34549C-18.6227 -11.3726 -1.83426 -28.168 18.8754 -28.168H56.3734V9.34549C56.3734 30.0636 39.5849 46.8589 18.8754 46.8589C-1.83426 46.8589 -18.6227 30.0636 -18.6227 9.34549Z"
			fill="#EAEAEE" />
		<path
			d="M131.369 84.3723C131.369 105.09 114.581 121.886 93.8715 121.886H56.3734V84.3723C56.3734 63.6542 73.1619 46.8589 93.8715 46.8589C114.581 46.8589 131.369 63.6542 131.369 84.3723Z"
			fill="#D0D0D9" />
		<path
			d="M206.183 9.34549C206.183 -11.3726 189.394 -28.168 168.685 -28.168H131.187V9.34549C131.187 30.0636 147.975 46.8589 168.685 46.8589C189.394 46.8589 206.183 30.0636 206.183 9.34549Z"
			fill="#EAEAEE" />
		<path
			d="M-18.8143 234.426C-18.8143 213.708 -2.02591 196.913 18.6837 196.913H56.1818V234.426C56.1818 255.144 39.3933 271.94 18.6837 271.94C-2.02591 271.94 -18.8143 255.144 -18.8143 234.426Z"
			fill="#C0C0CC" />
	</g>
	<defs>
		<clipPath id="clip0_25_77">
			<rect width="206" height="270" fill="white" transform="matrix(1 0 0 -1 0 270)" />
		</clipPath>
	</defs>
</svg>