<svg width="297" height="284" viewBox="0 0 297 284" fill="none" xmlns="http://www.w3.org/2000/svg">
    <g clip-path="url(#clip0_17_3)">
        <path
            d="M81.2762 162.313C81.2762 192.194 57.0715 216.417 27.2135 216.417H-26.8492V162.313C-26.8492 132.432 -2.64451 108.209 27.2135 108.209C57.0715 108.209 81.2762 132.432 81.2762 162.313Z"
            fill="#31BE62" />
        <path
            d="M81.2762 270.521C81.2762 240.64 105.481 216.417 135.339 216.417H189.402V270.521C189.402 300.402 165.197 324.626 135.339 324.626C105.481 324.626 81.2762 300.402 81.2762 270.521Z"
            fill="#31BE62" />
        <path
            d="M-26.8492 270.521C-26.8492 300.402 -2.64451 324.626 27.2135 324.626H81.2762V270.521C81.2762 240.64 57.0715 216.417 27.2135 216.417C-2.64451 216.417 -26.8492 240.64 -26.8492 270.521Z"
            fill="#7DD29B" />
        <path
            d="M189.402 162.313C189.402 132.432 165.197 108.209 135.339 108.209H81.2762V162.313C81.2762 192.194 105.481 216.417 135.339 216.417C165.197 216.417 189.402 192.194 189.402 162.313Z"
            fill="#278448" />
        <path
            d="M297.264 270.521C297.264 300.402 273.059 324.626 243.201 324.626H189.138V270.521C189.138 240.64 213.343 216.417 243.201 216.417C273.059 216.417 297.264 240.64 297.264 270.521Z"
            fill="#7DD29B" />
        <path
            d="M81.5397 54.1043C81.5397 24.2233 57.335 0 27.477 0H-26.5857V54.1043C-26.5857 83.9852 -2.38098 108.209 27.477 108.209C57.335 108.209 81.5397 83.9852 81.5397 54.1043Z"
            fill="#2E6440" />
    </g>
    <defs>
        <clipPath id="clip0_17_3">
            <rect width="297" height="284" fill="white" />
        </clipPath>
    </defs>
</svg>