<svg width="323" height="423" viewBox="0 0 323 423" fill="none" xmlns="http://www.w3.org/2000/svg">
    <g clip-path="url(#clip0_19_27)">
        <path
            d="M234.609 132.183C234.609 99.725 260.932 73.4123 293.404 73.4123L352.2 73.4123V132.183C352.2 164.642 325.876 190.954 293.404 190.954C260.932 190.954 234.609 164.642 234.609 132.183Z"
            fill="#DEDEE3" />
        <path
            d="M234.609 14.6412C234.609 47.0996 208.285 73.4123 175.813 73.4123H117.018L117.018 14.6412C117.018 -17.8171 143.341 -44.1298 175.813 -44.1298C208.285 -44.1298 234.609 -17.8171 234.609 14.6412Z"
            fill="#DEDEE3" />
        <path
            d="M352.2 14.6412C352.2 -17.8171 325.876 -44.1298 293.404 -44.1298H234.609V14.6412C234.609 47.0996 260.932 73.4123 293.404 73.4123C325.876 73.4123 352.2 47.0996 352.2 14.6412Z"
            fill="#EAEAEE" />
        <path
            d="M117.018 132.183C117.018 164.642 143.341 190.954 175.813 190.954H234.609V132.183C234.609 99.725 208.285 73.4123 175.813 73.4123C143.341 73.4123 117.018 99.725 117.018 132.183Z"
            fill="#D0D0D9" />
        <path
            d="M-0.286629 14.6412C-0.286629 -17.8171 26.037 -44.1298 58.5088 -44.1298L117.304 -44.1298V14.6412C117.304 47.0996 90.9807 73.4123 58.5088 73.4123C26.037 73.4123 -0.286629 47.0996 -0.286629 14.6412Z"
            fill="#EAEAEE" />
        <path
            d="M352.5 367.268C352.5 334.809 326.177 308.497 293.705 308.497H234.909V367.268C234.909 399.726 261.233 426.039 293.705 426.039C326.177 426.039 352.5 399.726 352.5 367.268Z"
            fill="#C0C0CC" />
    </g>
    <defs>
        <clipPath id="clip0_19_27">
            <rect width="323" height="423" fill="white" transform="matrix(-1 0 0 -1 323 423)" />
        </clipPath>
    </defs>
</svg>