<svg width="25" height="21" viewBox="0 0 25 21" fill="none" xmlns="http://www.w3.org/2000/svg">
<path d="M12.5002 3.26231C14.1043 3.26231 15.4168 4.35165 15.4168 5.68308C15.4168 7.0145 14.1043 8.10385 12.5002 8.10385C10.896 8.10385 9.5835 7.0145 9.5835 5.68308C9.5835 4.35165 10.896 3.26231 12.5002 3.26231ZM12.5002 15.3662C16.4377 15.3662 20.9585 16.9276 21.2502 17.7869H3.75016C4.08558 16.9154 8.57725 15.3662 12.5002 15.3662ZM12.5002 0.841537C9.27725 0.841537 6.66683 3.00813 6.66683 5.68308C6.66683 8.35803 9.27725 10.5246 12.5002 10.5246C15.7231 10.5246 18.3335 8.35803 18.3335 5.68308C18.3335 3.00813 15.7231 0.841537 12.5002 0.841537ZM12.5002 12.9454C8.60641 12.9454 0.833496 14.5673 0.833496 17.7869V20.2077H24.1668V17.7869C24.1668 14.5673 16.3939 12.9454 12.5002 12.9454Z" fill="#161616"/>
</svg>
