<svg width="22" height="22" viewBox="0 0 22 22" fill="none" xmlns="http://www.w3.org/2000/svg">
<path d="M21.7073 17.7075L17.7073 21.7075C17.5197 21.8951 17.2652 22.0006 16.9998 22.0006C16.7344 22.0006 16.4799 21.8951 16.2923 21.7075C16.1047 21.5199 15.9993 21.2654 15.9993 21C15.9993 20.7346 16.1047 20.4801 16.2923 20.2925L18.5861 18H0.99981C0.734594 18 0.48024 17.8947 0.292704 17.7071C0.105167 17.5196 -0.000189781 17.2652 -0.000189781 17C-0.000189781 16.7348 0.105167 16.4804 0.292704 16.2929C0.48024 16.1054 0.734594 16 0.99981 16H18.5861L16.2923 13.7075C16.1047 13.5199 15.9993 13.2654 15.9993 13C15.9993 12.7346 16.1047 12.4801 16.2923 12.2925C16.4799 12.1049 16.7344 11.9994 16.9998 11.9994C17.2652 11.9994 17.5197 12.1049 17.7073 12.2925L21.7073 16.2925C21.8003 16.3854 21.874 16.4957 21.9244 16.6171C21.9747 16.7385 22.0006 16.8686 22.0006 17C22.0006 17.1314 21.9747 17.2615 21.9244 17.3829C21.874 17.5043 21.8003 17.6146 21.7073 17.7075ZM4.29231 9.70751C4.47995 9.89515 4.73445 10.0006 4.99981 10.0006C5.26517 10.0006 5.51967 9.89515 5.70731 9.70751C5.89495 9.51987 6.00037 9.26537 6.00037 9.00001C6.00037 8.73464 5.89495 8.48015 5.70731 8.29251L3.41356 6.00001H20.9998C21.265 6.00001 21.5194 5.89465 21.7069 5.70711C21.8945 5.51958 21.9998 5.26522 21.9998 5.00001C21.9998 4.73479 21.8945 4.48044 21.7069 4.2929C21.5194 4.10536 21.265 4.00001 20.9998 4.00001H3.41356L5.70731 1.70751C5.89495 1.51987 6.00037 1.26537 6.00037 1.00001C6.00037 0.734643 5.89495 0.480147 5.70731 0.292507C5.51967 0.104866 5.26517 -0.000549312 4.99981 -0.000549316C4.73445 -0.00054932 4.47995 0.104866 4.29231 0.292507L0.29231 4.29251C0.199334 4.38538 0.125575 4.49567 0.0752506 4.61707C0.0249263 4.73846 -0.000976562 4.86859 -0.000976562 5.00001C-0.000976562 5.13142 0.0249263 5.26155 0.0752506 5.38295C0.125575 5.50434 0.199334 5.61463 0.29231 5.70751L4.29231 9.70751Z" fill="#161616"/>
</svg>
